<?xml version="1.0" encoding="UTF-8" standalone="no"?>
<!-- Generator: Adobe Illustrator 18.1.0, SVG Export Plug-In . SVG Version: 6.00 Build 0)  -->

<svg
   xmlns:dc="http://purl.org/dc/elements/1.1/"
   xmlns:cc="http://creativecommons.org/ns#"
   xmlns:rdf="http://www.w3.org/1999/02/22-rdf-syntax-ns#"
   xmlns:svg="http://www.w3.org/2000/svg"
   xmlns="http://www.w3.org/2000/svg"
   xmlns:sodipodi="http://sodipodi.sourceforge.net/DTD/sodipodi-0.dtd"
   xmlns:inkscape="http://www.inkscape.org/namespaces/inkscape"
   version="1.1"
   id="Layer_1"
   x="0px"
   y="0px"
   viewBox="0 0 500 500"
   enable-background="new 0 0 500 500"
   xml:space="preserve"
   inkscape:version="0.91 r"
   sodipodi:docname="image-not-found.svg"
   inkscape:export-filename="/opt/lampp/htdocs/kontakku/local/resources/assets/images/photos/imagenotfound.png"
   inkscape:export-xdpi="14.874112"
   inkscape:export-ydpi="14.874112"><metadata
     id="metadata13"><rdf:RDF><cc:Work
         rdf:about=""><dc:format>image/svg+xml</dc:format><dc:type
           rdf:resource="http://purl.org/dc/dcmitype/StillImage" /><dc:title></dc:title></cc:Work></rdf:RDF></metadata><defs
     id="defs11" /><sodipodi:namedview
     pagecolor="#ffffff"
     bordercolor="#666666"
     borderopacity="1"
     objecttolerance="10"
     gridtolerance="10"
     guidetolerance="10"
     inkscape:pageopacity="0"
     inkscape:pageshadow="2"
     inkscape:window-width="1301"
     inkscape:window-height="744"
     id="namedview9"
     showgrid="false"
     inkscape:zoom="0.472"
     inkscape:cx="231.99153"
     inkscape:cy="250"
     inkscape:window-x="65"
     inkscape:window-y="24"
     inkscape:window-maximized="1"
     inkscape:current-layer="Layer_1" /><g
     id="g3"
     transform="matrix(0.42973801,0,0,0.42973801,142.0678,97.00952)"><path
       d="m 147.4,164.8 c 3.5,59 20.1,108.8 51,142.9 0,0 0.7,0.5 2.2,1.2 l -7.7,28.5 c 15.8,12.9 35.6,20.6 57,20.6 21.4,0 41.3,-7.7 57,-20.6 l -7.2,-28.7 c 1.1,-0.6 1.6,-1 1.6,-1 37.8,-41.4 54.2,-106.2 51.5,-182.6 -3.2,-91.5 -99.6,-84.7 -102.9,-85 -5.2,0.2 -99.8,-5.4 -102.9,85 -0.4,11.7 -0.4,23.3 0.1,34.4 0.1,1.8 0.2,3.5 0.3,5.3 z"
       id="path5"
       inkscape:connector-curvature="0"
       style="fill:#010101" /><path
       d="M 352.3,345.6 C 327.2,375 290.8,393.8 250,393.8 209.2,393.8 172.8,375.1 147.7,345.6 90.6,366.9 0,408.8 0,460 l 250,0 250,0 c 0,-51.2 -90.7,-93.1 -147.7,-114.4 z"
       id="path7"
       inkscape:connector-curvature="0"
       style="fill:#010101" /></g><text
     xml:space="preserve"
     style="font-style:normal;font-weight:normal;font-size:40px;line-height:125%;font-family:sans-serif;letter-spacing:0px;word-spacing:0px;fill:#000000;fill-opacity:1;stroke:none;stroke-width:1px;stroke-linecap:butt;stroke-linejoin:miter;stroke-opacity:1"
     x="63.559319"
     y="103.81357"
     id="text4141"
     sodipodi:linespacing="125%"><tspan
       sodipodi:role="line"
       id="tspan4143"
       x="63.559319"
       y="103.81357">IMAGE NOT FOUND</tspan></text>
</svg>