<?xml version="1.0" encoding="utf-8"?>
<!-- Generator: Adobe Illustrator 18.1.0, SVG Export Plug-In . SVG Version: 6.00 Build 0)  -->
<svg version="1.1" id="Layer_1" xmlns="http://www.w3.org/2000/svg" xmlns:xlink="http://www.w3.org/1999/xlink" x="0px" y="0px"
	 viewBox="0 0 500 500" enable-background="new 0 0 500 500" xml:space="preserve">
<g>
	<path fill="#010101" d="M461,115.4H39H0v38.5v192.4v38.5h39H461h39v-38.5V153.7v-38.5h-39V115.4z M467.4,290.2
		c-33.4,0-60.4,27-60.4,60.4H93c0-33.4-27-60.4-60.4-60.4v-80.4c33.4,0,60.4-27.1,60.4-60.4h313.9c0,33.4,27,60.4,60.4,60.4v80.4
		H467.4z"/>
	<path fill="#010101" d="M239.9,230.5c0,1.2,0.5,2.4,1.7,3.3c0.7,0.7,2.1,1.2,4.1,1.8v-10.9c-1.4,0.3-2.8,0.7-3.7,1.4
		C240.6,227.3,239.9,228.8,239.9,230.5z"/>
	<path fill="#010101" d="M254.3,258.9v15.5c1.8-0.4,3.5-0.9,4.8-2c1.8-1.6,2.8-3.4,2.8-5.5c0-2-0.9-3.8-2.6-5.4
		C258.3,260.6,256.5,259.8,254.3,258.9z"/>
	<path fill="#010101" d="M250,182.9c-37.1,0-67.1,30-67.1,67.1s30,67.1,67.1,67.1s67.1-30,67.1-67.1S287.1,182.9,250,182.9z
		 M280.9,277.2c-2.8,4.2-6.5,7.3-11.5,9.6c-4.2,1.8-9.2,2.9-15.2,3.1v11.8h-8.6v-11.9c-10.3-0.7-17.8-3.1-22.1-7.5
		c-5.1-5.1-8-11.5-8.6-19.3l22.8-1.4c0.5,3.7,1.4,6.5,3,8.4c1.3,1.7,3,2.9,5,3.7v-17.2c-9.7-2.4-16.9-5.4-21.1-9
		c-4.5-3.9-6.8-8.9-6.8-14.9c0-3.9,1.2-7.7,3.4-11.3c2.4-3.5,5.8-6.3,10.3-8.4c3.7-1.6,8.3-2.5,14-2.9v-11.9h8.6v11.9
		c8.1,0.4,14.4,2.1,19,5.4c5.2,3.7,8.3,9.6,9.3,17.5l-22.5,1.3c-0.7-3.5-1.8-6-3.8-7.6c-0.5-0.4-1.3-0.7-2-1v11.9
		c8,1.8,14,3.8,17.8,5.8c4.5,2.4,7.9,5.1,9.8,8.5c2.1,3.4,3.1,7.2,3.1,11.4C285.1,268.5,283.7,273,280.9,277.2z"/>
	<path fill="#010101" d="M89.1,224.2c-14.3,0-25.8,11.5-25.8,25.8s11.5,25.8,25.8,25.8s25.8-11.5,25.8-25.8
		C114.9,235.7,103.3,224.2,89.1,224.2z"/>
	<circle fill="#010101" cx="410.9" cy="250" r="25.8"/>
</g>
</svg>
